<?xml version="1.0" standalone="no"?>
<!DOCTYPE svg PUBLIC "-//W3C//DTD SVG 20010904//EN"
 "http://www.w3.org/TR/2001/REC-SVG-20010904/DTD/svg10.dtd">
<svg version="1.0" xmlns="http://www.w3.org/2000/svg"
 width="540.000000pt" height="340.000000pt" viewBox="0 0 540.000000 340.000000"
 preserveAspectRatio="xMidYMid meet">

<g transform="translate(0.000000,340.000000) scale(0.100000,-0.100000)"
fill="#000000" stroke="none">
<path d="M1578 2323 c-32 -5 -32 -4 -17 -75 13 -64 29 -85 29 -40 0 39 9 40
40 7 13 -14 28 -25 33 -25 6 0 0 11 -13 25 -18 20 -21 28 -12 37 18 18 14 56
-7 68 -11 5 -21 9 -23 9 -2 -1 -15 -4 -30 -6z m50 -40 c2 -13 -1 -23 -6 -23
-6 0 -17 -3 -25 -6 -15 -5 -31 32 -21 48 11 18 49 3 52 -19z"/>
<path d="M1507 2251 c17 -51 13 -78 -12 -87 -23 -9 -41 11 -55 61 -13 48 -37
64 -25 18 17 -70 33 -93 64 -93 58 0 72 43 41 126 -18 45 -28 24 -13 -25z"/>
<path d="M2995 2256 c-39 -28 -21 -232 25 -288 25 -31 37 -17 51 57 25 136
-20 272 -76 231z m61 -92 c7 -51 -3 -171 -16 -179 -26 -16 -61 205 -40 245
l13 24 18 -23 c10 -12 21 -42 25 -67z"/>
<path d="M3232 2247 c-12 -5 -36 -37 -52 -71 -31 -62 -70 -219 -58 -231 34
-34 187 196 176 266 -4 31 -37 50 -66 36z m41 -52 c-3 -37 -54 -138 -93 -185
-27 -31 -29 -33 -30 -13 0 36 48 178 71 207 28 35 55 30 52 -9z"/>
<path d="M1302 2233 c-24 -9 -43 -60 -33 -86 11 -29 48 -57 74 -57 26 0 67 45
67 75 0 49 -60 87 -108 68z m72 -29 c34 -34 9 -94 -39 -94 -24 0 -55 33 -55
59 0 42 63 66 94 35z"/>
<path d="M1210 2152 c0 -47 -1 -48 -35 -26 -13 9 -30 14 -36 12 -7 -2 8 -16
34 -31 25 -15 49 -36 52 -47 3 -11 11 -20 17 -20 6 0 7 7 3 18 -4 9 -11 41
-16 70 -9 67 -19 79 -19 24z"/>
<path d="M1816 2152 c-27 -3 -28 -5 -23 -45 3 -23 9 -62 12 -87 l6 -45 -70 75
c-64 67 -74 74 -103 71 -18 -1 -34 -4 -36 -6 -2 -2 7 -67 19 -144 22 -132 25
-141 45 -141 44 0 52 8 44 48 -4 20 -11 60 -15 87 l-6 50 71 -77 c71 -77 95
-90 129 -69 11 7 9 31 -9 142 -12 74 -25 136 -29 139 -3 3 -19 4 -35 2z"/>
<path d="M1950 2053 c0 -60 -3 -125 -6 -145 l-7 -38 84 0 c66 0 91 4 117 20
98 60 94 196 -8 248 -33 16 -62 22 -112 22 l-68 0 0 -107z m165 26 c14 -14 20
-33 20 -65 0 -38 -5 -50 -28 -70 -16 -14 -41 -24 -58 -24 l-29 0 0 96 0 96 38
-7 c20 -3 46 -15 57 -26z"/>
<path d="M2298 2111 c-29 -23 -44 -71 -31 -96 5 -9 31 -30 59 -48 31 -21 49
-39 49 -52 0 -30 -33 -30 -60 -1 -31 34 -75 36 -75 3 0 -32 33 -64 79 -78 67
-20 126 9 137 68 7 35 -9 55 -76 97 -41 26 -47 59 -12 64 17 3 25 -2 29 -16 4
-17 39 -32 74 -32 19 0 8 41 -19 71 -38 42 -113 52 -154 20z"/>
<path d="M3320 2054 c-55 -52 -130 -145 -130 -162 0 -51 216 81 241 146 29 75
-38 85 -111 16z m100 9 c0 -24 -86 -103 -149 -137 -68 -36 -60 -19 36 82 45
48 76 72 91 72 14 0 22 -6 22 -17z"/>
<path d="M1477 2078 c-16 -5 -27 -15 -24 -22 2 -6 21 -68 42 -138 38 -125 40
-127 64 -121 15 3 30 9 34 13 8 7 -72 281 -83 279 -3 0 -18 -5 -33 -11z"/>
<path d="M2526 1944 c-25 -69 -46 -129 -46 -134 0 -7 112 -54 148 -62 8 -2 18
7 23 20 7 19 5 24 -14 31 -12 5 -34 14 -49 20 -25 9 -26 13 -17 41 6 16 12 30
14 30 1 0 21 -7 44 -15 40 -14 42 -14 50 8 11 27 7 31 -41 46 -35 12 -36 13
-26 42 5 16 11 29 12 29 1 0 24 -7 50 -16 52 -18 51 -18 60 12 6 19 -2 24 -66
48 -40 14 -78 26 -84 26 -6 0 -32 -57 -58 -126z"/>
<path d="M1316 2024 l-28 -16 7 -104 c4 -57 4 -104 0 -104 -4 0 -40 30 -81 66
-72 65 -75 66 -104 54 -17 -7 -33 -16 -35 -21 -5 -8 110 -259 119 -259 13 0
56 24 56 32 0 5 -14 35 -30 68 -17 33 -28 60 -24 60 3 0 32 -23 65 -52 52 -45
62 -50 83 -40 24 11 25 23 12 145 -4 41 6 33 32 -26 35 -82 35 -81 70 -63 l30
16 -61 130 c-34 71 -66 130 -72 130 -5 -1 -23 -8 -39 -16z"/>
<path d="M2789 1969 c-12 -23 -10 -26 37 -55 20 -12 24 -1 -68 -172 -23 -42
-23 -43 -4 -57 11 -8 25 -15 32 -15 7 0 34 39 60 88 65 120 60 116 101 92 l34
-20 11 25 c6 14 9 27 7 28 -2 2 -48 27 -101 56 -97 52 -97 52 -109 30z"/>
<path d="M4247 1972 c6 -4 13 -21 16 -37 l4 -30 2 32 c0 17 7 34 14 36 6 3 -1
6 -18 6 -16 0 -25 -3 -18 -7z"/>
<path d="M4300 1945 c0 -19 5 -35 10 -35 6 0 10 8 10 17 0 15 1 15 14 -2 13
-18 13 -18 24 1 10 17 11 17 12 2 0 -10 5 -18 10 -18 6 0 10 16 10 35 0 41
-16 46 -32 9 l-12 -25 -13 25 c-19 36 -33 32 -33 -9z"/>
<path d="M4009 1947 c-79 -53 -122 -191 -122 -392 l1 -130 -43 -55 c-24 -30
-55 -66 -70 -80 l-27 -25 -18 23 c-18 22 -40 102 -40 147 0 18 8 28 33 38 40
17 62 41 82 91 43 103 -56 179 -138 106 -44 -38 -73 -107 -82 -193 -9 -82 -76
-319 -90 -318 -11 1 -14 411 -5 601 l5 105 -41 3 c-39 3 -41 2 -52 -36 -6 -21
-17 -73 -24 -116 -6 -43 -17 -80 -22 -82 -6 -1 -30 -8 -54 -14 -45 -12 -117
-68 -127 -100 -16 -50 -96 -36 -172 31 -42 36 -64 49 -82 47 -32 -4 -87 -74
-101 -131 -15 -57 -57 -141 -81 -163 -32 -29 -36 -19 -57 149 -11 88 -22 107
-65 107 -23 0 -41 -11 -73 -44 l-42 -44 -6 60 c-9 74 -18 100 -47 127 -40 37
-97 21 -148 -39 l-20 -25 -1 53 c0 57 -11 69 -54 58 -27 -7 -32 -29 -42 -171
-6 -90 -7 -90 -60 -161 -29 -38 -62 -78 -74 -89 -19 -17 -21 -17 -39 -1 -20
18 -41 93 -41 146 0 24 7 33 40 50 53 27 80 72 80 132 0 38 -5 50 -26 67 -33
26 -68 27 -108 2 -54 -34 -96 -133 -96 -229 0 -93 -112 -304 -139 -263 -26 40
-25 170 4 371 17 113 14 120 -62 120 -30 0 -77 7 -105 16 -41 14 -51 15 -58 4
-5 -8 -11 -61 -15 -119 -4 -58 -13 -153 -21 -210 -18 -136 -18 -141 6 -141 14
0 22 10 29 38 15 54 39 214 47 310 7 81 7 82 34 82 56 0 58 -3 43 -88 -21
-118 -20 -298 1 -347 26 -61 43 -75 92 -75 57 0 93 32 139 125 19 39 34 65 35
58 0 -25 62 -82 95 -89 63 -12 92 3 145 73 l50 66 0 -34 c0 -19 3 -51 6 -71 6
-36 9 -38 44 -38 l37 0 6 79 c11 141 89 339 125 317 21 -13 34 -90 41 -236 6
-144 6 -145 30 -145 21 0 25 8 42 73 21 85 50 152 71 170 21 17 25 9 38 -71
13 -81 25 -115 52 -144 35 -38 75 -28 111 26 l16 24 14 -35 c40 -95 162 -90
203 8 8 19 14 62 14 97 l0 63 60 -1 60 0 0 -63 c0 -79 26 -112 88 -112 47 0
64 16 95 93 l23 57 12 -93 c12 -100 42 -200 69 -229 23 -26 68 -23 91 6 17 23
29 58 62 185 l11 43 18 -33 c34 -64 117 -98 171 -69 10 6 40 38 66 72 46 59
48 61 57 37 5 -13 21 -48 34 -77 48 -102 145 -110 205 -15 29 46 87 185 81
196 -13 22 -34 -3 -72 -88 -40 -86 -81 -145 -102 -145 -18 0 -40 51 -55 124
l-16 76 32 48 c81 122 140 277 140 369 0 58 -3 68 -29 94 -36 36 -75 38 -122
6z m81 -36 c13 -26 13 -135 -1 -186 -16 -59 -90 -215 -102 -215 -16 0 0 193
22 282 21 82 46 138 61 138 5 0 14 -9 20 -19z m-2057 -281 c10 -37 -29 -130
-53 -130 -14 0 -12 25 6 92 17 59 37 75 47 38z m1723 -4 c8 -34 -11 -88 -43
-117 l-26 -24 8 50 c13 95 47 145 61 91z m-410 -54 c-21 -66 -96 -237 -105
-240 -15 -5 -14 99 1 151 7 22 26 55 44 73 35 37 69 46 60 16z m-387 -78 c24
-47 26 -143 5 -189 -24 -50 -50 -57 -65 -18 -21 53 8 249 35 240 6 -2 18 -17
25 -33z"/>
</g>
</svg>
